<svg width="2048" height="2048" viewBox="0 0 2048 2048" fill="none" xmlns="http://www.w3.org/2000/svg">
<circle cx="1607.34" cy="444.853" r="201.443" fill="#315DCE"/>
<circle cx="1607.34" cy="1607.34" r="201.443" fill="#315DCE"/>
<circle cx="1024" cy="1024" r="67.1475" fill="#315DCE"/>
<circle cx="1271.61" cy="780.592" r="134.295" fill="#315DCE"/>
<circle cx="1271.61" cy="1271.61" r="134.295" fill="#315DCE"/>
<path d="M1336.8 1818.1C1371.32 1905.72 1328.32 2006.26 1236.19 2025.77C1129.32 2048.41 1019.14 2053.88 909.856 2041.62C743.86 2023 584.938 1964.05 446.949 1869.92C308.96 1775.79 196.093 1649.34 118.189 1501.58C40.2852 1353.82 -0.289982 1189.25 0.00155972 1022.21C0.293101 855.176 41.4425 690.746 119.862 543.261C198.281 395.776 311.589 269.714 449.906 176.066C588.223 82.4186 747.349 24.0293 913.409 5.98941C1022.74 -5.88772 1132.89 -0.0373169 1239.68 22.9718C1331.74 42.8069 1374.39 143.5 1339.57 230.999C1304.75 318.498 1205.29 358.831 1111.91 346.71C1058.47 339.775 1004.21 339.161 950.24 345.024C839.484 357.056 733.352 395.999 641.1 458.459C548.848 520.918 473.275 604.997 420.973 703.365C368.67 801.732 341.225 911.4 341.03 1022.81C340.836 1134.22 367.898 1243.98 419.857 1342.53C471.816 1441.08 547.094 1525.42 639.128 1588.2C731.162 1650.98 837.157 1690.3 947.87 1702.71C1001.81 1708.77 1056.08 1708.34 1109.54 1701.59C1202.97 1689.8 1302.29 1730.48 1336.8 1818.1Z" fill="#315DCE"/>
<path d="M1812.52 697.385C1899.52 661.347 2000.81 702.592 2021.92 794.367C2056.69 945.456 2056.69 1102.54 2021.92 1253.63C2000.81 1345.41 1899.52 1386.65 1812.52 1350.61C1725.51 1314.58 1686.58 1214.56 1700 1121.35C1709.29 1056.79 1709.29 991.211 1700 926.65C1686.58 833.438 1725.51 733.424 1812.52 697.385Z" fill="#315DCE"/>
</svg>
